<mxfile host="app.diagrams.net" agent="Mozilla/5.0 (Windows NT 10.0; Win64; x64) AppleWebKit/537.36 (KHTML, like Gecko) Chrome/127.0.0.0 Safari/537.36" version="24.7.6">
  <diagram name="Pagina-1" id="n-4xevzuOd9kLehilfn1">
    <mxGraphModel dx="1434" dy="1987" grid="1" gridSize="10" guides="1" tooltips="1" connect="1" arrows="1" fold="1" page="1" pageScale="1" pageWidth="827" pageHeight="1169" math="0" shadow="0">
      <root>
        <mxCell id="0" />
        <mxCell id="1" parent="0" />
        <mxCell id="iapaWCNFb2yjcTGx5gQ4-1" value="main.Game" style="rounded=0;whiteSpace=wrap;html=1;" parent="1" vertex="1">
          <mxGeometry x="80" y="-300" width="160" height="60" as="geometry" />
        </mxCell>
        <mxCell id="iapaWCNFb2yjcTGx5gQ4-2" value="- chessboard: main.Board&lt;br&gt;- player1: player.Player&lt;br&gt;- player2: player.Player&lt;br&gt;- turn: boolean&lt;br&gt;&lt;div&gt;&lt;br&gt;&lt;/div&gt;" style="rounded=0;whiteSpace=wrap;html=1;align=left;verticalAlign=top;" parent="1" vertex="1">
          <mxGeometry x="80" y="-250" width="160" height="70" as="geometry" />
        </mxCell>
        <mxCell id="iapaWCNFb2yjcTGx5gQ4-3" value="+ void startGame()&lt;br&gt;+ game()&lt;br&gt;- isCheckMate()&lt;br&gt;- printDetailsGame()&lt;br&gt;- getInputMove()&lt;br&gt;- isInputMoveValid()" style="rounded=0;whiteSpace=wrap;html=1;align=left;horizontal=1;verticalAlign=top;" parent="1" vertex="1">
          <mxGeometry x="80" y="-180" width="160" height="140" as="geometry" />
        </mxCell>
        <mxCell id="iapaWCNFb2yjcTGx5gQ4-4" value="main.Board" style="rounded=0;whiteSpace=wrap;html=1;" parent="1" vertex="1">
          <mxGeometry x="290" y="-140" width="120" height="40" as="geometry" />
        </mxCell>
        <mxCell id="iapaWCNFb2yjcTGx5gQ4-5" value="- arr[64] Piece&lt;br&gt;&lt;br&gt;&lt;div&gt;&lt;br&gt;&lt;/div&gt;" style="rounded=0;whiteSpace=wrap;html=1;align=left;verticalAlign=top;" parent="1" vertex="1">
          <mxGeometry x="290" y="-100" width="120" height="30" as="geometry" />
        </mxCell>
        <mxCell id="iapaWCNFb2yjcTGx5gQ4-6" value="+ board()&lt;br&gt;+ printBoard()&lt;br&gt;+ isMoveValid()&lt;div&gt;- initChessBoard()&lt;/div&gt;" style="rounded=0;whiteSpace=wrap;html=1;align=left;verticalAlign=top;" parent="1" vertex="1">
          <mxGeometry x="290" y="-70" width="120" height="80" as="geometry" />
        </mxCell>
        <mxCell id="iapaWCNFb2yjcTGx5gQ4-7" value="Piece" style="rounded=0;whiteSpace=wrap;html=1;" parent="1" vertex="1">
          <mxGeometry x="338" y="30" width="150" height="60" as="geometry" />
        </mxCell>
        <mxCell id="iapaWCNFb2yjcTGx5gQ4-8" value="- color: 2 bit&lt;br&gt;- isEverMoved: boolean&lt;br&gt;- image: blob" style="rounded=0;whiteSpace=wrap;html=1;align=left;verticalAlign=top;" parent="1" vertex="1">
          <mxGeometry x="338" y="80" width="150" height="60" as="geometry" />
        </mxCell>
        <mxCell id="iapaWCNFb2yjcTGx5gQ4-23" style="edgeStyle=orthogonalEdgeStyle;rounded=0;orthogonalLoop=1;jettySize=auto;html=1;exitX=0.5;exitY=0;exitDx=0;exitDy=0;" parent="1" source="iapaWCNFb2yjcTGx5gQ4-9" target="iapaWCNFb2yjcTGx5gQ4-8" edge="1">
          <mxGeometry relative="1" as="geometry" />
        </mxCell>
        <mxCell id="iapaWCNFb2yjcTGx5gQ4-9" value="Tower" style="rounded=0;whiteSpace=wrap;html=1;" parent="1" vertex="1">
          <mxGeometry x="0.5" y="280" width="150" height="60" as="geometry" />
        </mxCell>
        <mxCell id="iapaWCNFb2yjcTGx5gQ4-24" style="edgeStyle=orthogonalEdgeStyle;rounded=0;orthogonalLoop=1;jettySize=auto;html=1;exitX=0.5;exitY=0;exitDx=0;exitDy=0;entryX=0.5;entryY=1;entryDx=0;entryDy=0;" parent="1" source="iapaWCNFb2yjcTGx5gQ4-10" target="iapaWCNFb2yjcTGx5gQ4-8" edge="1">
          <mxGeometry relative="1" as="geometry">
            <mxPoint x="410" y="140" as="targetPoint" />
          </mxGeometry>
        </mxCell>
        <mxCell id="iapaWCNFb2yjcTGx5gQ4-10" value="Knight" style="rounded=0;whiteSpace=wrap;html=1;" parent="1" vertex="1">
          <mxGeometry x="170.5" y="290" width="150" height="60" as="geometry" />
        </mxCell>
        <mxCell id="iapaWCNFb2yjcTGx5gQ4-25" style="edgeStyle=orthogonalEdgeStyle;rounded=0;orthogonalLoop=1;jettySize=auto;html=1;" parent="1" source="iapaWCNFb2yjcTGx5gQ4-11" edge="1">
          <mxGeometry relative="1" as="geometry">
            <mxPoint x="414" y="140" as="targetPoint" />
          </mxGeometry>
        </mxCell>
        <mxCell id="iapaWCNFb2yjcTGx5gQ4-11" value="Bishop" style="rounded=0;whiteSpace=wrap;html=1;" parent="1" vertex="1">
          <mxGeometry x="339.5" y="305" width="150" height="60" as="geometry" />
        </mxCell>
        <mxCell id="iapaWCNFb2yjcTGx5gQ4-26" style="edgeStyle=orthogonalEdgeStyle;rounded=0;orthogonalLoop=1;jettySize=auto;html=1;exitX=0.5;exitY=0;exitDx=0;exitDy=0;entryX=0.5;entryY=1;entryDx=0;entryDy=0;" parent="1" source="iapaWCNFb2yjcTGx5gQ4-12" target="iapaWCNFb2yjcTGx5gQ4-8" edge="1">
          <mxGeometry relative="1" as="geometry">
            <mxPoint x="420" y="140" as="targetPoint" />
          </mxGeometry>
        </mxCell>
        <mxCell id="iapaWCNFb2yjcTGx5gQ4-12" value="Queen" style="rounded=0;whiteSpace=wrap;html=1;" parent="1" vertex="1">
          <mxGeometry x="510.5" y="290" width="150" height="60" as="geometry" />
        </mxCell>
        <mxCell id="iapaWCNFb2yjcTGx5gQ4-27" style="edgeStyle=orthogonalEdgeStyle;rounded=0;orthogonalLoop=1;jettySize=auto;html=1;exitX=0.5;exitY=0;exitDx=0;exitDy=0;entryX=0.5;entryY=1;entryDx=0;entryDy=0;" parent="1" source="iapaWCNFb2yjcTGx5gQ4-13" target="iapaWCNFb2yjcTGx5gQ4-8" edge="1">
          <mxGeometry relative="1" as="geometry" />
        </mxCell>
        <mxCell id="iapaWCNFb2yjcTGx5gQ4-13" value="King" style="rounded=0;whiteSpace=wrap;html=1;" parent="1" vertex="1">
          <mxGeometry x="677.5" y="280" width="150" height="60" as="geometry" />
        </mxCell>
        <mxCell id="iapaWCNFb2yjcTGx5gQ4-14" value="Constant" style="rounded=0;whiteSpace=wrap;html=1;" parent="1" vertex="1">
          <mxGeometry x="560" y="-140" width="150" height="60" as="geometry" />
        </mxCell>
        <mxCell id="iapaWCNFb2yjcTGx5gQ4-15" value="- colors&lt;br&gt;- pathImages" style="rounded=0;whiteSpace=wrap;html=1;align=left;verticalAlign=top;" parent="1" vertex="1">
          <mxGeometry x="560" y="-80" width="150" height="60" as="geometry" />
        </mxCell>
        <mxCell id="iapaWCNFb2yjcTGx5gQ4-16" value="player.Player" style="rounded=0;whiteSpace=wrap;html=1;" parent="1" vertex="1">
          <mxGeometry x="300" y="-360" width="120" height="60" as="geometry" />
        </mxCell>
        <mxCell id="iapaWCNFb2yjcTGx5gQ4-22" style="edgeStyle=orthogonalEdgeStyle;rounded=0;orthogonalLoop=1;jettySize=auto;html=1;" parent="1" source="iapaWCNFb2yjcTGx5gQ4-17" target="iapaWCNFb2yjcTGx5gQ4-16" edge="1">
          <mxGeometry relative="1" as="geometry" />
        </mxCell>
        <mxCell id="iapaWCNFb2yjcTGx5gQ4-17" value="player.Human" style="rounded=0;whiteSpace=wrap;html=1;" parent="1" vertex="1">
          <mxGeometry x="600" y="-360" width="120" height="60" as="geometry" />
        </mxCell>
        <mxCell id="iapaWCNFb2yjcTGx5gQ4-18" value="player.Bot" style="rounded=0;whiteSpace=wrap;html=1;" parent="1" vertex="1">
          <mxGeometry x="600" y="-280" width="120" height="60" as="geometry" />
        </mxCell>
        <mxCell id="iapaWCNFb2yjcTGx5gQ4-19" value="- nickname: String&lt;br&gt;- color: Colors&lt;br&gt;-&amp;nbsp;" style="rounded=0;whiteSpace=wrap;html=1;align=left;verticalAlign=top;" parent="1" vertex="1">
          <mxGeometry x="300" y="-300" width="120" height="60" as="geometry" />
        </mxCell>
        <mxCell id="iapaWCNFb2yjcTGx5gQ4-21" value="" style="endArrow=classic;html=1;rounded=0;exitX=0;exitY=0.5;exitDx=0;exitDy=0;entryX=1;entryY=0.5;entryDx=0;entryDy=0;" parent="1" source="iapaWCNFb2yjcTGx5gQ4-18" target="iapaWCNFb2yjcTGx5gQ4-19" edge="1">
          <mxGeometry width="50" height="50" relative="1" as="geometry">
            <mxPoint x="570" y="-240" as="sourcePoint" />
            <mxPoint x="570" y="-290" as="targetPoint" />
          </mxGeometry>
        </mxCell>
        <mxCell id="wjYsbVMYEBUa93ALgJD4-1" value="Move" style="rounded=0;whiteSpace=wrap;html=1;" parent="1" vertex="1">
          <mxGeometry x="120" y="-580" width="120" height="60" as="geometry" />
        </mxCell>
        <mxCell id="wjYsbVMYEBUa93ALgJD4-2" value="- ca : Pair&lt;div&gt;- cp : Pair&lt;/div&gt;" style="rounded=0;whiteSpace=wrap;html=1;align=left;verticalAlign=top;" parent="1" vertex="1">
          <mxGeometry x="120" y="-520" width="120" height="40" as="geometry" />
        </mxCell>
        <mxCell id="wjYsbVMYEBUa93ALgJD4-3" value="+ move()&lt;div&gt;+ get_ca()&lt;/div&gt;&lt;div&gt;+ get_cp()&lt;/div&gt;&lt;div&gt;+ toString()&amp;nbsp;&lt;/div&gt;" style="rounded=0;whiteSpace=wrap;html=1;align=left;verticalAlign=top;" parent="1" vertex="1">
          <mxGeometry x="120" y="-480" width="120" height="70" as="geometry" />
        </mxCell>
        <mxCell id="wjYsbVMYEBUa93ALgJD4-4" value="+ getIsEverMoved&lt;div&gt;+ setPieceMoved&lt;/div&gt;" style="rounded=0;whiteSpace=wrap;html=1;align=left;verticalAlign=top;" parent="1" vertex="1">
          <mxGeometry x="338" y="140" width="152" height="60" as="geometry" />
        </mxCell>
      </root>
    </mxGraphModel>
  </diagram>
</mxfile>
